<?xml version="1.0" encoding="UTF-8" standalone="no"?>
<!-- Created with Inkscape (http://www.inkscape.org/) -->
<svg xmlns:dc="http://purl.org/dc/elements/1.1/" xmlns:cc="http://creativecommons.org/ns#" xmlns:rdf="http://www.w3.org/1999/02/22-rdf-syntax-ns#" xmlns:svg="http://www.w3.org/2000/svg" xmlns="http://www.w3.org/2000/svg" xmlns:xlink="http://www.w3.org/1999/xlink" xmlns:sodipodi="http://sodipodi.sourceforge.net/DTD/sodipodi-0.dtd" xmlns:inkscape="http://www.inkscape.org/namespaces/inkscape" version="1.0" width="196.51874" height="60.239414" id="svg2" sodipodi:version="0.32" inkscape:version="0.47pre4 r22446" sodipodi:docname="Molbio-Header.svg" inkscape:output_extension="org.inkscape.output.svg.inkscape">
  <metadata id="metadata56">
    <rdf:RDF>
      <cc:Work rdf:about="">
        <dc:format>image/svg+xml</dc:format>
        <dc:type rdf:resource="http://purl.org/dc/dcmitype/StillImage"/>
      </cc:Work>
    </rdf:RDF>
  </metadata>
  <sodipodi:namedview inkscape:window-height="737" inkscape:window-width="813" inkscape:pageshadow="2" inkscape:pageopacity="0.0" guidetolerance="10.0" gridtolerance="10.0" objecttolerance="10.0" borderopacity="1.0" bordercolor="#666666" pagecolor="#ffffff" id="base" showgrid="false" inkscape:zoom="3.5348672" inkscape:cx="36.724079" inkscape:cy="31.208979" inkscape:window-x="92" inkscape:window-y="92" inkscape:current-layer="svg2" inkscape:window-maximized="0"/>
  <defs id="defs4">
    <linearGradient id="linearGradient3250">
      <stop style="stop-color: rgb(255, 233, 205); stop-opacity: 1;" offset="0" id="stop3252"/>
      <stop style="stop-color: rgb(254, 169, 59); stop-opacity: 1;" offset="1" id="stop3254"/>
    </linearGradient>
    <inkscape:perspective sodipodi:type="inkscape:persp3d" inkscape:vp_x="0 : 30.119707 : 1" inkscape:vp_y="0 : 1000 : 0" inkscape:vp_z="196.51874 : 30.119707 : 1" inkscape:persp3d-origin="98.259369 : 20.079805 : 1" id="perspective58"/>
    <radialGradient inkscape:collect="always" xlink:href="#linearGradient3250" id="radialGradient3256" cx="30.012808" cy="190.75786" fx="30.012808" fy="190.75786" r="9.9542616" gradientTransform="matrix(-0.970697, 0.168753, -0.273085, -1.49351, 111.239, 470.11)" gradientUnits="userSpaceOnUse"/>
  </defs>
  <path style="fill: none; stroke: rgb(0, 0, 0);" id="path238" d=""/>
  <path id="path308" d=""/>
  <path style="fill: none; stroke: rgb(0, 0, 0);" id="path316" d=""/>
  <path style="fill: none; stroke: rgb(0, 0, 0);" id="path318" d=""/>
  <path id="path630" d=""/>
  <rect style="overflow: visible; marker: none; fill: rgb(240, 240, 240); fill-opacity: 1; fill-rule: nonzero; stroke: none; stroke-width: 1; stroke-linecap: butt; stroke-linejoin: round; stroke-miterlimit: 4; stroke-dasharray: none; stroke-dashoffset: 0pt; stroke-opacity: 1; visibility: visible; display: inline;" id="rect2774" y="1.484375e-06" x="-3.2666017e-06" height="60.239414" width="196.51874"/>
  <rect style="overflow: visible; marker: none; fill: rgb(198, 198, 255); fill-opacity: 1; fill-rule: nonzero; stroke: none; stroke-width: 1; stroke-linecap: butt; stroke-linejoin: round; stroke-miterlimit: 4; stroke-dasharray: none; stroke-dashoffset: 0pt; stroke-opacity: 1; visibility: visible; display: inline;" id="rect3546" y="18.957277" x="-3.2666017e-06" height="22.324867" width="196.51874"/>
  <g id="g282" transform="matrix(-0.0121862, -0.999864, 0.739395, -0.0164791, 9.83855, 109.523)">
    <g id="g284">
      <line x1="78.838997" y1="49.366001" x2="78.838997" y2="91.365997" id="line286" style="fill: none; stroke: rgb(0, 0, 0); stroke-width: 2.32575;"/>
      <path id="path288" d="M 80.376,94.909 C 81.126,92.429 81.815,90.817 82.614,88.827 L 75.047,88.827 C 75.385,89.54 76.536,92.429 77.285,94.909 C 78.087,97.563 78.636,99.97 78.831,101.53 C 79.026,99.97 79.575,97.563 80.376,94.909 z"/>
    </g>
  </g>
  <path d="" id="path326" style="fill: none; stroke: rgb(0, 0, 0); stroke-width: 0.25;"/>
  <path d="m 56.882039,22.447418 c -0.352779,0.188691 -0.790129,0.05511 -0.979906,-0.296843 L 49.224943,9.6131906 C 49.037338,9.2595818 49.169836,8.8230607 49.522616,8.6343699 l 0,0 c 0.351693,-0.1878612 0.790959,-0.054021 0.97882,0.2976728 l 6.677447,12.5354683 c 0.18952,0.353865 0.05785,0.791472 -0.296844,0.979907 l 0,0 z" id="path328" style="fill: rgb(253, 187, 99); stroke: rgb(0, 0, 0); stroke-width: 0.25;"/>
  <path d="m 52.154876,20.061193 c -0.309585,0.251983 -0.753432,0.217933 -0.992973,-0.07536 L 42.689419,9.566216 C 42.450708,9.2740034 42.509083,8.8304878 42.818668,8.5785043 l 0,0 c 0.310672,-0.2528129 0.754518,-0.2187628 0.99323,0.07345 l 8.472227,10.4215267 c 0.238456,0.294128 0.181422,0.734899 -0.129249,0.987712 l 0,0 z" id="path330" style="fill: rgb(253, 187, 99); stroke: rgb(0, 0, 0); stroke-width: 0.25;"/>
  <path d="m 24.266357,43.522899 c -0.318136,0.243041 -0.770972,0.181469 -1.013183,-0.135582 L 14.629786,32.099445 c -0.242211,-0.31705 -0.182554,-0.770142 0.135583,-1.013183 l 0,0 c 0.318136,-0.243041 0.770972,-0.181469 1.013183,0.135582 L 24.40111,42.50863 c 0.244127,0.317307 0.183384,0.771228 -0.134753,1.014269 l 0,0 z" id="path332" style="fill: rgb(253, 187, 99); stroke: rgb(0, 0, 0); stroke-width: 0.25;"/>
  <path d="m 29.424231,43.630192 c -0.3085,0.251154 -0.75675,0.21359 -0.999609,-0.08405 L 19.802951,32.94475 c -0.241773,-0.298471 -0.187802,-0.745501 0.122613,-0.996398 l 0,0 c 0.310671,-0.252813 0.758092,-0.216335 1.000695,0.08322 l 8.620585,10.60222 c 0.241773,0.298471 0.188058,0.743585 -0.122613,0.996398 l 0,0 z" id="path334" style="fill: rgb(253, 187, 99); stroke: rgb(0, 0, 0); stroke-width: 0.25;"/>
  <path d="m 30.81944,38.740194 c -0.259107,0.304553 -0.628961,0.416875 -0.823934,0.24944 l -6.980989,-5.9329 c -0.197143,-0.165776 -0.146969,-0.548003 0.111052,-0.851727 l 0,0 c 0.260194,-0.305383 0.628962,-0.416875 0.823934,-0.24944 l 6.980159,5.931814 c 0.197974,0.166862 0.1478,0.549089 -0.110222,0.852813 l 0,0 z" id="path336" style="fill: rgb(253, 187, 99); stroke: rgb(0, 0, 0); stroke-width: 0.25;"/>
  <path style="fill: rgb(231, 111, 52); stroke: rgb(0, 0, 0); stroke-width: 0.25;" d="M 37.3125 16 C 37.30023 16.090799 37.261055 16.230183 37.25 16.3125 C 36.977749 18.339696 39.031907 31.673336 38.65625 33.78125 C 38.28085 35.887248 39.123376 37.388959 33.1875 35.46875 C 32.627848 35.287707 32.023253 34.98922 31.4375 34.78125 C 30.741285 34.534061 30.056884 34.272605 29.34375 34 C 24.293176 32.069354 19.068277 29.769607 17.5625 29.34375 C 15.664144 28.808002 14.4375 29.78125 14.4375 29.78125 C 14.4375 29.78125 12.48888 30.930191 12.53125 32.71875 C 12.551754 33.584248 13.134149 35.917985 13.6875 38.3125 C 14.267371 38.556794 14.424482 38.607811 15.0625 38.875 C 15.403892 39.017968 15.802617 39.134518 16.15625 39.28125 C 15.554685 35.573891 14.875 31.25 14.875 31.25 C 14.875 31.25 24.698609 35.658822 27.46875 36.6875 C 28.114861 36.926674 28.860398 37.061974 29.59375 37.25 C 30.337192 37.440613 31.066552 37.677353 31.75 37.8125 C 33.284232 38.115885 34.5 38.28125 34.5 38.28125 C 36.446736 38.448179 37.08043 37.78489 38.9375 36.53125 C 40.794568 35.277609 40.78017 33.290691 40.71875 32.34375 C 40.658419 31.39598 39.639978 20.934523 39.21875 17.78125 C 39.148079 17.256052 39.302403 16.799996 39.3125 16.28125 C 38.99335 16.210515 38.653853 16.082599 38.34375 16.03125 C 37.973583 15.969955 37.66653 16.030569 37.3125 16 z " id="path2974"/>
  <path d="m 37.552988,36.433233 c -0.318137,0.243041 -0.751894,0.206441 -0.97088,-0.08021 L 28.792359,26.156373 C 28.573374,25.869724 28.65128,25.44052 28.969416,25.197479 l 0,0 c 0.317051,-0.242211 0.751894,-0.206442 0.971709,0.08129 l 7.789749,10.196653 c 0.220071,0.285819 0.139165,0.715596 -0.177886,0.957808 l 0,0 z" id="path338" style="fill: rgb(253, 187, 99); stroke: rgb(0, 0, 0); stroke-width: 0.25;"/>
  <path d="m 45.696523,17.776681 c -0.251129,0.310495 -0.59533,0.449645 -0.769564,0.309355 l -6.178951,-4.984331 c -0.174235,-0.14029 -0.112705,-0.505401 0.138425,-0.815895 l 0,0 c 0.251129,-0.310495 0.594244,-0.448816 0.768479,-0.308525 l 6.181122,4.982671 c 0.173405,0.139205 0.110789,0.505145 -0.139511,0.816725 l 0,0 z" id="path340" style="fill: rgb(253, 187, 99); stroke: rgb(0, 0, 0); stroke-width: 0.25;"/>
  <path style="fill: rgb(231, 111, 52); stroke: rgb(0, 0, 0); stroke-width: 0.25;" d="M 16.71875 42.8125 C 15.837976 42.447083 15.373741 42.22264 14.28125 41.75 C 14.466847 42.794147 14.813856 44.16911 14.78125 44.75 C 14.643401 47.171451 15.709186 51.802575 11.3125 57.3125 C 11.3125 57.3125 12.314044 57.352541 14.8125 54.125 C 17.309553 50.893372 16.689856 46.410136 16.90625 44.09375 C 16.917101 43.976395 16.748232 43.11598 16.71875 42.8125 z " id="path2978"/>
  <path style="fill: rgb(231, 111, 52); stroke: rgb(0, 0, 0); stroke-width: 0.25;" d="M 46.46875 7 C 45.622321 7.0650771 44.813208 7.2056119 44.0625 7.46875 C 39.671322 9.0076176 38.202711 11.928142 37.625 14.1875 C 37.752849 14.189801 37.837002 14.149463 37.96875 14.15625 C 38.427498 14.179884 38.968772 14.301412 39.46875 14.375 C 39.800323 12.580236 40.321923 11.019177 40.9375 10.34375 C 41.928089 9.2568472 44.34375 8.90625 44.34375 8.90625 C 51.281784 8.2399287 62.0625 15.21875 62.0625 15.21875 C 63.567431 15.889986 60 10.34375 60 10.34375 C 60 10.34375 52.393755 6.5444604 46.46875 7 z " id="path344"/>
  <path d="m 40.036106,30.151575 c -0.318136,0.24304 -0.765995,0.187983 -1.0024,-0.121467 L 30.628475,19.027799 C 30.39207,18.718349 30.456704,18.271771 30.77484,18.02873 l 0,0 c 0.318137,-0.24304 0.765996,-0.187983 1.002401,0.121467 l 8.404401,11.001224 c 0.237235,0.310535 0.172601,0.757113 -0.145536,1.000154 l 0,0 z" id="path346" style="fill: rgb(253, 187, 99); stroke: rgb(0, 0, 0); stroke-width: 0.25;"/>
  <path d="m 39.836394,34.441216 c -0.31705,0.242211 -0.789221,0.157581 -1.053828,-0.188786 L 29.362867,21.9222 c -0.264608,-0.346367 -0.222943,-0.825262 0.09411,-1.067473 l 0,0 c 0.318136,-0.243041 0.789221,-0.157581 1.054658,0.189871 l 9.419698,12.33023 c 0.265694,0.345538 0.2232,0.823347 -0.09494,1.066388 l 0,0 z" id="path348" style="fill: rgb(253, 187, 99); stroke: rgb(0, 0, 0); stroke-width: 0.25;"/>
  <path d="m 39.309635,24.165659 c -0.337788,0.215066 -0.722335,0.211372 -0.859821,-0.0069 l -4.905495,-7.733413 c -0.137486,-0.218229 0.02338,-0.568097 0.362,-0.782078 l 0,0 c 0.337532,-0.213151 0.722335,-0.211372 0.860651,0.0079 l 4.905495,7.733412 c 0.136656,0.217144 -0.02504,0.565926 -0.36283,0.780993 l 0,0 z" id="path350" style="fill: rgb(253, 187, 99); stroke: rgb(0, 0, 0); stroke-width: 0.25;"/>
  <path d="m 14.791555,53.326655 c -0.317051,0.242211 -0.770973,0.181469 -1.014013,-0.136668 L 5.1549837,41.903201 C 4.9127723,41.58615 4.9735152,41.132229 5.2905658,40.890018 l 0,0 c 0.3170507,-0.242212 0.772058,-0.182298 1.0142694,0.134752 l 8.6225578,11.286786 c 0.243297,0.316221 0.181212,0.772888 -0.135838,1.015099 l 0,0 z" id="path352" style="fill: rgb(253, 187, 99); stroke: rgb(0, 0, 0); stroke-width: 0.25;"/>
  <path d="m 16.092485,47.85184 c -0.283931,0.278811 -0.72295,0.296096 -0.979426,0.03465 L 6.0058977,38.625777 c -0.2556462,-0.260361 -0.2330272,-0.698913 0.05199,-0.978554 l 0,0 c 0.2850174,-0.279641 0.7229502,-0.296096 0.9794259,-0.03465 l 9.1082474,9.259883 c 0.255647,0.260361 0.233028,0.698914 -0.05308,0.979384 l 0,0 z" id="path354" style="fill: rgb(253, 187, 99); stroke: rgb(0, 0, 0); stroke-width: 0.25;"/>
  <g id="g356" transform="matrix(1.20055, 0.0871672, -0.0871672, 1.20055, 73.2464, -116.376)">
    <g id="g358">
      <path style="fill: none; stroke: rgb(0, 0, 0); stroke-width: 0.207691;" id="path360" d=""/>
      <path style="fill: rgb(253, 187, 99); stroke: rgb(0, 0, 0); stroke-width: 0.207691;" id="path362" d="M 31.761,123.728 C 31.761,124.021 31.588,124.257 31.375,124.257 L 23.803,124.257 C 23.59,124.257 23.417,124.021 23.417,123.728 L 23.417,123.728 C 23.417,123.435 23.589,123.199 23.803,123.199 L 31.375,123.199 C 31.588,123.198 31.761,123.435 31.761,123.728 L 31.761,123.728 z"/>
      <path style="fill: rgb(253, 187, 99); stroke: rgb(0, 0, 0); stroke-width: 0.207691;" id="path364" d="M 33.476,120.776 C 33.482,121.067 33.322,121.311 33.117,121.32 L 25.836,121.624 C 25.631,121.632 25.46,121.402 25.454,121.11 L 25.454,121.11 C 25.447,120.817 25.608,120.573 25.813,120.565 L 33.094,120.262 C 33.298,120.254 33.469,120.483 33.476,120.776 L 33.476,120.776 z"/>
      <path style="fill: rgb(253, 187, 99); stroke: rgb(0, 0, 0); stroke-width: 0.207691;" id="path366" d="M 35.002,117.792 C 35.064,118.078 34.965,118.343 34.781,118.382 L 28.229,119.806 C 28.045,119.847 27.845,119.648 27.783,119.363 L 27.783,119.363 C 27.721,119.076 27.82,118.812 28.004,118.773 L 34.555,117.349 C 34.74,117.308 34.94,117.507 35.002,117.792 L 35.002,117.792 z"/>
      <path style="fill: rgb(253, 187, 99); stroke: rgb(0, 0, 0); stroke-width: 0.207691;" id="path368" d="M 36.363,133.594 C 36.363,133.886 36.181,134.123 35.958,134.123 L 28.004,134.123 C 27.78,134.123 27.599,133.886 27.599,133.594 L 27.599,133.594 C 27.599,133.302 27.781,133.064 28.004,133.064 L 35.958,133.064 C 36.182,133.063 36.363,133.302 36.363,133.594 L 36.363,133.594 z"/>
      <path style="fill: rgb(253, 187, 99); stroke: rgb(0, 0, 0); stroke-width: 0.207691;" id="path370" d="M 34.37,130.405 C 34.398,130.694 34.256,130.957 34.053,130.99 L 26.836,132.172 C 26.633,132.205 26.446,131.997 26.418,131.707 L 26.418,131.707 C 26.39,131.417 26.532,131.155 26.735,131.122 L 33.952,129.939 C 34.154,129.906 34.342,130.114 34.37,130.405 L 34.37,130.405 z"/>
    </g>
    <path style="fill: rgb(228, 65, 69); stroke: rgb(0, 0, 0); stroke-width: 0.207691;" id="path372" d="M 24.813,104.093 C 22.787,102.922 21.177,103.964 20.984,105.023 C 20.791,106.082 21.658,107.623 21.658,107.623 C 24.353,111.954 31.208,115.131 31.208,115.131 C 32.267,115.708 27.454,116.094 27.454,116.094 C 27.454,116.094 22.139,112.531 20.695,108.104 C 19.251,103.677 21.319,102.327 22.813,102.211 C 23.855,102.131 24.524,102.457 26.546,103.611 C 28.567,104.767 35.112,108.809 35.69,109.195 C 36.268,109.58 37.422,110.445 37.326,112.082 C 37.23,113.719 37.326,114.393 36.364,115.451 C 36.364,115.451 34.15,117.664 32.322,118.82 C 30.493,119.974 23.563,123.728 23.563,123.728 C 23.563,123.728 31.301,127.665 31.938,128.252 C 33.189,129.407 36.077,131.043 36.847,133.931 C 37.617,136.819 37.136,137.396 37.136,137.396 C 35.885,132.391 32.708,130.948 31.361,129.792 C 30.013,128.637 24.431,126.519 23.372,125.749 C 22.313,124.979 22.506,123.343 22.506,123.343 C 22.506,123.343 22.506,122.188 23.661,121.322 C 24.816,120.457 30.398,117.568 34.152,114.969 C 37.906,112.37 36.654,112.177 35.596,111.023 C 34.535,109.867 25.872,105.151 24.813,104.093"/>
    <path style="fill: rgb(253, 187, 99); stroke: rgb(0, 0, 0); stroke-width: 0.207691;" id="path374" d="M 36.652,113.851 C 36.652,114.144 36.438,114.38 36.174,114.38 L 26.783,114.38 C 26.519,114.38 26.304,114.144 26.304,113.851 L 26.304,113.851 C 26.304,113.559 26.518,113.322 26.783,113.322 L 36.174,113.322 C 36.438,113.321 36.652,113.559 36.652,113.851 L 36.652,113.851 z"/>
    <path style="fill: rgb(253, 187, 99); stroke: rgb(0, 0, 0); stroke-width: 0.207691;" id="path376" d="M 34.101,109.616 C 34.101,109.909 33.87,110.145 33.585,110.145 L 23.452,110.145 C 23.167,110.145 22.936,109.909 22.936,109.616 L 22.936,109.616 C 22.936,109.323 23.167,109.087 23.452,109.087 L 33.585,109.087 C 33.87,109.087 34.101,109.323 34.101,109.616 L 34.101,109.616 z"/>
    <path style="fill: rgb(253, 187, 99); stroke: rgb(0, 0, 0); stroke-width: 0.207691;" id="path378" d="M 36.507,111.638 C 36.507,111.93 36.248,112.167 35.929,112.167 L 24.573,112.167 C 24.254,112.167 23.994,111.93 23.994,111.638 L 23.994,111.638 C 23.994,111.345 24.253,111.109 24.573,111.109 L 35.929,111.109 C 36.249,111.108 36.507,111.345 36.507,111.638 L 36.507,111.638 z"/>
    <path style="fill: rgb(253, 187, 99); stroke: rgb(0, 0, 0); stroke-width: 0.207691;" id="path380" d="M 30.214,107.138 C 30.189,107.43 29.975,107.649 29.736,107.628 L 21.27,106.888 C 21.031,106.867 20.859,106.615 20.884,106.324 L 20.884,106.324 C 20.91,106.033 21.123,105.812 21.362,105.834 L 29.829,106.574 C 30.067,106.594 30.239,106.847 30.214,107.138 L 30.214,107.138 z"/>
  </g>
  <g id="g382" transform="matrix(1.43676, 0, 0, 1.47349, 136.428, -256.781)">
    <path style="fill: rgb(221, 171, 106); stroke: rgb(0, 0, 0); stroke-width: 0.17182;" id="path384" d="M 22.285,188.617 C 22.285,188.617 16.785,188.992 16.035,190.992 C 15.285,192.992 15.785,192.867 15.41,195.117 C 15.035,197.367 16.785,196.617 16.91,199.492 C 17.035,202.367 18.535,199.367 21.41,201.117 C 24.285,202.867 25.285,189.492 22.285,188.617 z"/>
    <path style="fill: url(#radialGradient3256) rgb(0, 0, 0); stroke: rgb(0, 0, 0); stroke-width: 0.17182; fill-opacity: 1;" id="path386" d="M 20.816,203.38 C 20.816,203.38 18.412,200.634 19.614,199.089 C 20.816,197.542 20.472,196.341 19.786,195.653 C 19.099,194.967 17.21,192.391 18.584,191.704 C 19.958,191.018 16.352,189.302 18.069,187.755 C 19.786,186.21 17.898,182.089 24.079,181.917 C 30.26,181.747 28.887,180.028 34.553,186.21 C 39.659,191.78 36.098,191.019 36.442,194.28 C 36.785,197.542 38.159,203.723 33.351,204.067 C 28.543,204.411 28.028,206.472 20.816,203.38 z"/>
    <path style="fill: rgb(253, 187, 99); stroke: rgb(0, 0, 0); stroke-width: 0.17182;" id="path390" d=""/>
  </g>
  <g id="g3548" transform="matrix(-0.0121862, -0.999864, 0.739395, -0.0164791, 77.7128, 109.523)">
    <g id="g3550">
      <line x1="78.838997" y1="49.366001" x2="78.838997" y2="91.365997" id="line3552" style="fill: none; stroke: rgb(0, 0, 0); stroke-width: 2.32575;"/>
      <path id="path3554" d="M 80.376,94.909 C 81.126,92.429 81.815,90.817 82.614,88.827 L 75.047,88.827 C 75.385,89.54 76.536,92.429 77.285,94.909 C 78.087,97.563 78.636,99.97 78.831,101.53 C 79.026,99.97 79.575,97.563 80.376,94.909 z"/>
    </g>
  </g>
  <path style="fill: rgb(231, 111, 52); stroke: rgb(0, 0, 0); stroke-width: 0.25;" d="M 7.46875 36.1875 C 6.3142511 36.226302 5.59375 36.75 5.59375 36.75 C 5.59375 36.75 3.677207 37.900026 3.71875 39.6875 C 3.76029 41.474974 5.408097 49.396048 6.15625 52.21875 C 6.303989 52.761007 7.087308 52.460311 7.40625 52 C 8.365821 50.620409 6.0625 38.21875 6.0625 38.21875 C 6.0625 38.21875 10.605945 40.159969 14.28125 41.75 C 15.373741 42.22264 15.837976 42.447083 16.71875 42.8125 C 17.418747 43.102916 18.22933 43.497905 18.65625 43.65625 C 21.427477 44.684098 25.6875 45.25 25.6875 45.25 C 27.635322 45.416099 28.267931 44.753641 30.125 43.5 C 31.980984 42.247189 31.966838 40.289605 31.90625 39.34375 C 31.899881 39.244325 31.776179 38.102646 31.75 37.8125 C 31.066552 37.677353 30.337192 37.440613 29.59375 37.25 C 29.675437 38.38798 29.919078 40.328364 29.84375 40.75 C 29.468093 42.857913 30.309791 44.389788 24.375 42.46875 C 21.754429 41.620495 18.828264 40.389937 16.15625 39.28125 C 15.141721 38.860296 14.577649 38.687511 13.6875 38.3125 C 11.612666 37.438392 9.492697 36.552464 8.75 36.34375 C 8.2756825 36.209606 7.853583 36.174566 7.46875 36.1875 z " id="path2936"/>
  <path style="fill: rgb(231, 111, 52); stroke: rgb(0, 0, 0); stroke-width: 0.25;" d="M 37.625 14.1875 C 36.740377 14.171577 35.905794 14.20768 35.25 14.4375 C 29.244337 16.542605 28.710006 21.283388 28.4375 23.3125 C 28.27143 24.557989 28.854825 29.449265 29.34375 34 C 30.056884 34.272605 30.741285 34.534061 31.4375 34.78125 C 31.081808 31.171711 30.665034 26.946266 30.375 24.78125 C 29.952686 21.628807 31.13441 18.399402 32.125 17.3125 C 33.114759 16.224512 35.53125 15.90625 35.53125 15.90625 C 36.08071 15.85348 36.700387 15.947147 37.3125 16 C 37.963115 16.056177 38.612384 16.126079 39.3125 16.28125 C 46.270901 17.823488 55.125 23.6875 55.125 23.6875 C 56.673836 23.331334 58.375 21.6875 58.375 21.6875 C 58.375 21.6875 46.928614 15.472967 39.46875 14.375 C 38.825183 14.280278 38.198021 14.197814 37.625 14.1875 z " id="path2928"/>
</svg>